<svg xmlns="http://www.w3.org/2000/svg" width="202" height="200" fill="none"><rect width="202" height="200" fill="url(#a)" rx="52"/><path stroke="#fff" stroke-width="11" d="M104.849 53.353a.578.578 0 0 1 .319.03c.145.052.23.13.267.178a.272.272 0 0 1 .037.074.703.703 0 0 1 .028.22V83a6.5 6.5 0 0 0 6.5 6.5h29.554c.171 0 .239.041.272.064.055.036.128.11.182.226a.539.539 0 0 1 .054.284c-.004.04-.016.119-.126.25l-47.554 56.134a.675.675 0 0 1-.161.147.24.24 0 0 1-.077.033.576.576 0 0 1-.316-.034.57.57 0 0 1-.263-.178.262.262 0 0 1-.038-.075.695.695 0 0 1-.027-.216V116.5A6.5 6.5 0 0 0 87 110H59.633c-.167 0-.235-.039-.27-.062a.554.554 0 0 1-.181-.223.554.554 0 0 1-.059-.282c.004-.042.017-.12.122-.249l45.367-55.645a.727.727 0 0 1 .16-.153.253.253 0 0 1 .077-.033Z"/><defs><linearGradient id="a" x1="10.589" x2="199" y1="9.62" y2="196.5" gradientUnits="userSpaceOnUse"><stop stop-color="#437CF5"/><stop offset="1" stop-color="#8A3AEB"/></linearGradient></defs></svg>